<svg viewBox="0 0 345 264" fill="none" xmlns="http://www.w3.org/2000/svg">
  <path d="M146.523 93.742c-.755.557-1.528 1.13-2.307 1.707l-.158.117c-.014.01-.028.023-.046.032-2.3 1.705-4.689 3.49-7.121 5.315 1.051-.778 6.044-4.491 9.646-7.165-.004 0-.007-.007-.014-.01v.004Z" fill="#ED5E11"/>
  <path d="M152.173 98.172c11.964-7.95 24.461-15.702 38.871-18.654 14.957-3.066 30.512-.664 45.824.104 13.888.697 28.842-.305 40.269-7.162a188.31 188.31 0 0 1-7.915.722h-.043a181.95 181.95 0 0 1-27.043-.123c-38.084-3.053-48.857-3.516-64.336 1.32-.93.323-1.839.667-2.736 1.033-6.02 2.463-11.438 5.93-18.395 10.921-.004 0-.007.007-.014.01a715.249 715.249 0 0 0-6.42 4.663c-.408.299-1.875 1.388-3.699 2.742-3.601 2.674-8.594 6.388-9.646 7.165-.032.023-.064.049-.089.068 1.502 1.112 6.86 2.885 15.376-2.81h-.004Z" fill="#FF945A"/>
  <path d="M255.343 163.787c-.354-.185-.715-.379-1.08-.573l-.787-.425c-.032-.016-.064-.036-.097-.052-14.063-7.609-34.714-21-46.392-28.894-5.336-3.847-8.82-6.323-8.838-6.336l-9.657 3.889c-9.657 3.889-23.606 13.287-44.35 29.491-20.745 16.203-43.635 12.963-56.153 2.268-12.519-10.694-1.43-21.065 7.51-29.491 7.934-7.476 36.425-29.241 54.737-42.654.054-.04.111-.081.165-.123a839.731 839.731 0 0 1 6.256-4.54c.003-.004.01-.007.014-.01 6.956-4.991 12.375-8.459 18.394-10.922-1.752-.998-16.913-9.2-43.445-9.81-28.255-.648-71.533 19.445-100.861 20.741L1.431 87.643 0 186.16s17.847 3.666 37.823 9.768c.025-.023.082-.029.168-.026 2.017.039 21.02 5.35 34.39 11.372a150.855 150.855 0 0 1 14.495 7.492c.304-.47 12.515-19.123 37.237-12.405 17.128 4.657 18.241 16.852 18.241 16.852s9.918-7.195 23.248-1.621c5.801 2.427 9.249 5.749 11.298 8.805a348.5 348.5 0 0 0 6.338 3.526c6.42 3.484 12.969 6.777 19.664 9.81 5.927 2.683 11.968 5.159 18.13 7.356l.008-.006s8.226 1.944 17.525-2.269c6.155-2.79 7.608-6.854 7.887-9.284a296.662 296.662 0 0 1-12.948-4.53 347.57 347.57 0 0 1-27.78-11.855c-8.744-4.183-17.296-8.704-25.594-13.581-.486-.286-.69-.859-.386-1.329.282-.438.98-.635 1.466-.35a328.756 328.756 0 0 0 13.963 7.752 354.44 354.44 0 0 0 26.836 12.671 313.979 313.979 0 0 0 24.453 9.162c.601-.078 10.88-1.475 16.782-7.451 4.109-4.161 5.604-8.617 6.141-11.067-3.888-.253-7.751-1.235-11.417-2.512-3.526-1.228-6.967-2.66-10.397-4.093a431.626 431.626 0 0 1-29.239-13.494 426.788 426.788 0 0 1-18.824-10.16 417.525 417.525 0 0 1-18.201-11.051c-.476-.304-.701-.842-.387-1.328.276-.425.995-.652 1.467-.35a418.72 418.72 0 0 0 20.222 12.198 426.217 426.217 0 0 0 18.645 9.942 431.584 431.584 0 0 0 28.896 13.19c3.33 1.374 6.667 2.751 10.122 3.853 3.036.969 6.187 1.728 9.41 1.912.064-.003 11.463-.67 18.595-9.074 7.153-8.426 9.657-20.092 9.657-20.092s-22.176-9.398-42.562-20.093l-.033-.016.004.003Z" fill="#FFA9DF"/>
  <path d="M95.496 133.665c-8.194 7.722-18.19 17.078-10.161 26.823 1.67.185 3.405.068 5.032-.308 3.595-.829 6.763-2.745 9.7-4.799 5.579-3.899 10.841-8.737 12.629-14.911 1.702-5.872-.833-13.066-6.796-15.607-4.574 3.685-8.247 6.773-10.404 8.805v-.003Z" fill="#FFD7F0"/>
  <path d="M95.494 133.664c-5.097 4.803-10.89 10.241-12.611 16.01 3.476-1.404 6.788-3.092 9.81-5.199 6.55-4.563 11.592-11.365 12.183-18.789-4.096 3.318-7.39 6.099-9.382 7.978Z" fill="#F2F8F3"/>
  <path d="M195.998 243.525c2.908 5.105 2.489 9.201.533 12.338 11.13-.133 19.228-4.89 22.668-7.344a233.614 233.614 0 0 1-8.34-3.208c-6.85-2.787-13.545-5.882-20.105-9.191a335.647 335.647 0 0 1-12.074-6.416c1.151 2.748 1.223 4.751 1.223 4.751s10.372-.973 16.095 9.074v-.004Z" fill="#FFA9DF"/>
  <path d="M250.148 207.297a425.867 425.867 0 0 1-9.785-4.18 427.357 427.357 0 0 1-19.11-9.01 423.933 423.933 0 0 1-36.693-20.753c-.726-.46-1.452-.924-2.174-1.387-.473-.305-1.195-.078-1.467.35-.315.486-.089 1.027.386 1.328a422.15 422.15 0 0 0 18.202 11.051 428.952 428.952 0 0 0 48.063 23.654c3.43 1.433 6.87 2.865 10.397 4.094 3.666 1.276 7.529 2.258 11.417 2.511.257-1.176.296-1.896.296-1.896-3.222-.184-6.373-.943-9.41-1.912-3.451-1.102-6.792-2.479-10.122-3.853v.003Zm-54.981 4.346a335.56 335.56 0 0 1-13.963-7.752c-.486-.285-1.184-.09-1.466.35-.304.474-.104 1.044.386 1.329 8.298 4.877 16.85 9.398 25.594 13.582a348.506 348.506 0 0 0 27.78 11.855 297.978 297.978 0 0 0 12.948 4.53c.143-1.241-.018-2.058-.018-2.058s.01 0 .028-.003a313.364 313.364 0 0 1-24.453-9.161 355.547 355.547 0 0 1-26.836-12.672Z" fill="#112231"/>
  <path d="M312.597 64.637s-13.881 5.39-35.459 7.823c-11.427 6.857-26.377 7.859-40.269 7.162-15.312-.768-30.866-3.17-45.824-.104-14.41 2.953-26.91 10.701-38.871 18.654-8.516 5.694-13.873 3.921-15.376 2.81-1.133.852-2.274 1.707-3.423 2.576-15.089 11.31-32.765 25.284-37.883 30.106-8.942 8.426-20.03 18.797-7.511 29.491 12.518 10.695 35.409 13.935 56.153-2.268 20.744-16.204 34.693-25.602 44.35-29.491l9.657-3.889c34.372 21.94 72.334 39.8 111.738 53.087a56.02 56.02 0 0 1 5.222-.587 78.835 78.835 0 0 1 4.774-.181c5.723-.026 6.671.829 6.671.829L312.597 64.637Z" fill="#ED5E11"/>
  <path d="M255.328 163.781c-.351-.185-.709-.373-1.066-.568.361.192.715.383 1.066.568Zm-1.976-1.053c.035.019.075.038.11.061l-.089-.049-.021-.012Z" fill="#ED5E11"/>
  <path d="m309.445 180.668.433-.071c-39.4-13.287-77.366-31.147-111.737-53.087.018.013 3.501 2.489 8.838 6.336 11.67 7.888 32.304 21.269 46.367 28.881.007.004.014.01.021.013.029.017.061.033.09.049 0 0 .003 0 .007.003l.787.425c.358.191.715.382 1.066.567.003 0 .007.003.014.006.011.007.021.01.032.017 20.387 10.694 42.559 20.092 42.562 20.092 0 0 .039-.019.118-.052.004 0 .007 0 .011-.003 3.598-1.491 7.486-2.508 11.384-3.173l.007-.003ZM31.472 206.497c19.647 1.004 39.025 6.034 56.282 14.593-.83-3.665-.89-6.303-.89-6.303s0-.007.007-.01a150.644 150.644 0 0 0-14.496-7.493c-13.37-6.021-32.373-11.333-34.39-11.371-1.842 1.147-6.706 6.507-9.188 10.474.89.029 1.781.064 2.672.113l.003-.003Zm171.423 33.243c-6.696-3.033-13.245-6.322-19.665-9.809a341.439 341.439 0 0 1-6.273-3.491 18.07 18.07 0 0 1 1.788 3.3 337.82 337.82 0 0 0 12.007 6.381c6.56 3.312 13.255 6.403 20.104 9.19a225.992 225.992 0 0 0 8.341 3.209c1.141-.814 1.77-1.374 1.828-1.426-6.166-2.198-12.207-4.673-18.13-7.357v.003Z" fill="#112231"/>
  <path d="M142.347 219.22s-1.112-12.195-18.241-16.852c-24.736-6.718-36.929 11.933-37.243 12.415 0 0 .06 2.638.89 6.304-18.04-8.948-38.398-14.033-58.953-14.707-8.159 12.804-5.29 26.36 18.409 30.016 12.582 1.899 30.537-6.025 41.52-11.777 2.207 6.728 7.018 14.898 17.494 17.61 15.022 3.889 22.89-3.24 22.89-3.24s-1.073 11.666 12.876 15.879c15.691 4.738 20.387-1.62 20.387-1.62 1.585 7.726 15.455 13.066 25.752 9.074 6.438-2.593 13.591-8.75 7.868-18.796-5.722-10.047-16.094-9.075-16.094-9.075a15.886 15.886 0 0 0-1.156-4.712 18.094 18.094 0 0 0-1.788-3.299c-6.785-9.968-23.581-14.777-34.611-7.22Z" fill="#ED5E11"/>
  <path d="M130.116 230.857c-11.832-.978-23.241-5.729-31.76-13.232 0 0 1.377 10.64 11.391 15.501 10.015 4.861 20.373-2.272 20.373-2.272l-.004.003Z" fill="#FFA9DF"/>
  <path d="M183.134 234.62s-.021 0-.029-.003a11.636 11.636 0 0 0-.304-.042c-.01 0-.017 0-.028-.004-1.52-.194-2.582-.139-2.815-.12a18.898 18.898 0 0 1-.583 4.022 20.174 20.174 0 0 1-4.503 8.413c-3.115 3.487-7.686 5.292-12.493 6.368 0 .123.111.584.172.716 2.814.373 12.081 1.41 18.963-3.47 5.73-4.064 8.333-9.697 9.389-12.743-2.769-2.006-5.652-2.816-7.769-3.131v-.006Z" fill="#112231"/>
  <path d="M142.492 231.765a44.636 44.636 0 0 1-4.074 3.438c.218.596 2.303 5.72 10.708 9.988 8.942 4.537 20.652-.318 20.652-.318-10.176-2.236-20.519-5.885-27.286-13.108Z" fill="#FFA9DF"/>
  <path d="M142.348 219.22s-1.113-12.195-18.241-16.852c-25.037-6.805-37.244 12.415-37.244 12.415s0 1.148.186 2.237l.601-.571c7.608-7.787 19.4-10.853 30.14-9.732 9.446.985 18.996 7.315 24.361 14.823.197-1.338.197-2.21.197-2.32Zm23.246-1.62c-5.275-2.207-10.018-2.411-13.82-1.854a22.236 22.236 0 0 1-.626 2.599c6.857-.762 14.046 1.121 19.35 5.143 4.914 3.727 8.126 9.22 8.874 14.979.336-1.319.536-2.667.583-4.019-.033 0-.412-11.015-14.361-16.848Z" fill="#FF945A"/>
  <path d="M151.779 215.73c-5.809.849-9.432 3.477-9.432 3.477v.017c0 .11 0 .981-.196 2.32-.408 2.774-1.667 7.541-5.526 11.598-3.198 3.361-6.016 4.781-7.511 5.834-.007.152-.025.567-.011.972 1.906-.489 5.218-1.714 9.314-4.757a44.654 44.654 0 0 0 4.073-3.439c.19-.181.383-.363.573-.551 4.857-4.751 7.071-9.502 8.086-12.849a22.38 22.38 0 0 0 .626-2.599v-.017l.004-.006Z" fill="#112231"/>
  <path d="M164.885 110.332c-6.598-7.477-14.209-13.518-18.362-16.59a1602.54 1602.54 0 0 0-13.144 9.816c3.262 2.577 10.258 8.378 17.554 16.172 6.864 7.33 14.4 17.098 18.463 22.516 5.436-3.671 10.125-6.514 14.185-8.588-3.806-5.091-11.528-15.205-18.699-23.326h.003Z" fill="#BBF6E2"/>
  <path d="M128.76 102.476c9.632 0 17.44-7.075 17.44-15.802s-7.808-15.802-17.44-15.802c-9.632 0-17.44 7.075-17.44 15.802s7.808 15.802 17.44 15.802Z" fill="#68CDB5"/>
  <path d="M123.809 101.828c1.57.421 3.229.648 4.95.648 6.309 0 11.838-3.037 14.9-7.587l-19.85 6.939Z" fill="#112231"/>
  <path d="M111.969 82.41c3.981 2.32 9.396 2.734 13.527.566 4.449-2.333 6.777-7.327 6.094-11.893a19.377 19.377 0 0 0-2.829-.21c-8.001 0-14.736 4.883-16.792 11.536Z" fill="#BBF6E2"/>
  <path d="m146.523 93.742-2.307 1.708-.157.117c-.014.01-.029.022-.046.032a1536.923 1536.923 0 0 0-10.63 7.959l.086.068c2.417 1.912 6.795 5.529 11.813 10.371.465-.483.919-.976 1.352-1.484 3.477-4.064 5.844-9.162 5.662-14.24a3.254 3.254 0 0 0-.122-.097 135.63 135.63 0 0 0-5.654-4.43l.003-.004Z" fill="#68CDB5"/>
  <path d="M344.529 27.362c-11.231 6.679-14.675 11.845-19.292 28.956-3.452-16.758-6.549-21.642-17.354-27.362 11.234-6.68 14.675-11.845 19.292-28.956 3.448 16.758 6.545 21.642 17.354 27.362Z" fill="#2EAFC0"/>
  <path d="m270.195 89.642.011.058c1.549-7.2 6.352-13.711 12.894-18.009-2.776.406-5.712.765-8.792 1.067-1.47 4.407-2.718 9.913-4.113 16.884Z" fill="#112231"/>
  <path d="M310.084 51.362c-30.477-7.058-33.417-9.842-39.962-38.649-7.225 29.073-10.244 31.792-39.962 38.65 31.492 5.697 34.819 8.046 39.962 38.648l.075-.372c1.398-6.971 2.643-12.477 4.113-16.884 4.889-14.661 12.239-17.199 35.774-21.393ZM122.215 80.785c-8.198 1.475-9.035 2.191-10.662 10.41-1.374-8.242-2.261-8.877-10.662-10.41 7.929-1.847 8.734-2.58 10.662-10.409 1.745 7.758 2.532 8.507 10.662 10.41Z" fill="#fff"/>
</svg>